<?xml version="1.0" encoding="UTF-8" standalone="no"?>
<!-- Generator: Adobe Illustrator 16.0.0, SVG Export Plug-In . SVG Version: 6.00 Build 0)  -->

<svg
   xmlns:dc="http://purl.org/dc/elements/1.1/"
   xmlns:cc="http://creativecommons.org/ns#"
   xmlns:rdf="http://www.w3.org/1999/02/22-rdf-syntax-ns#"
   xmlns:svg="http://www.w3.org/2000/svg"
   xmlns="http://www.w3.org/2000/svg"
   xmlns:sodipodi="http://sodipodi.sourceforge.net/DTD/sodipodi-0.dtd"
   xmlns:inkscape="http://www.inkscape.org/namespaces/inkscape"
   version="1.1"
   id="Calque_1"
   x="0px"
   y="0px"
   width="362.33398"
   height="50.892002"
   viewBox="0 0 362.33398 50.892002"
   enable-background="new 0 0 400 85"
   xml:space="preserve"
   inkscape:version="0.48.4 r9939"
   sodipodi:docname="erocci-logo.svg"><metadata
     id="metadata49"><rdf:RDF><cc:Work
         rdf:about=""><dc:format>image/svg+xml</dc:format><dc:type
           rdf:resource="http://purl.org/dc/dcmitype/StillImage" /></cc:Work></rdf:RDF></metadata><defs
     id="defs47" /><sodipodi:namedview
     pagecolor="#ffffff"
     bordercolor="#666666"
     borderopacity="1"
     objecttolerance="10"
     gridtolerance="10"
     guidetolerance="10"
     inkscape:pageopacity="0"
     inkscape:pageshadow="2"
     inkscape:window-width="640"
     inkscape:window-height="480"
     id="namedview45"
     showgrid="false"
     fit-margin-top="0"
     fit-margin-left="0"
     fit-margin-right="0"
     fit-margin-bottom="0"
     inkscape:zoom="0.9875"
     inkscape:cx="181.167"
     inkscape:cy="25.446001"
     inkscape:window-x="387"
     inkscape:window-y="116"
     inkscape:window-maximized="0"
     inkscape:current-layer="Calque_1" /><g
     id="g3"
     transform="translate(-18.833,-17.054)"><polygon
       points="146.612,67.946 146.612,28.402 186.123,28.402 186.123,17.516 135.693,17.516 135.693,67.946 "
       id="polygon5" /><path
       d="m 195.151,67.946 h 50.431 v -50.43 h -50.431 v 50.43 z m 10.92,-39.544 h 28.623 V 57.026 H 206.071 V 28.402 z"
       id="path7"
       inkscape:connector-curvature="0" /><polygon
       points="253.389,17.516 253.389,67.946 303.818,67.946 303.818,57.026 264.309,57.026 264.309,28.402 303.818,28.402 303.818,17.516 "
       id="polygon9" /><polygon
       points="361.606,67.946 361.606,17.516 311.176,17.516 311.176,28.435 350.686,28.435 350.686,57.059 311.176,57.059 311.176,67.946 "
       id="polygon11" /><rect
       x="370.24799"
       y="17.516001"
       width="10.919"
       height="50.43"
       id="rect13" /><polygon
       points="88.182,37.271 88.182,28.402 127.694,28.402 127.694,17.516 77.263,17.516 77.263,67.946 127.694,67.946 127.694,57.026 88.182,57.026 88.182,48.191 127.694,48.191 127.694,37.271 "
       id="polygon15" /></g><rect
     x="10.92"
     y="10.919"
     width="28.591999"
     height="9.2980003"
     id="rect17"
     style="fill:none" /><rect
     x="10.92"
     y="31.137001"
     width="28.591999"
     height="8.3730001"
     id="rect19"
     style="fill:none" /><rect
     x="39.512001"
     y="31.137001"
     width="10.919"
     height="8.3730001"
     id="rect21"
     style="fill:#5752a3" /><rect
     x="39.512001"
     y="10.919"
     width="10.919"
     height="9.2980003"
     id="rect23"
     style="fill:#5752a3" /><polygon
     points="18.834,37.271 29.753,37.271 29.753,27.973 18.834,27.973 18.834,17.054 18.833,17.054 18.833,67.484 18.834,67.484 18.834,56.564 29.753,56.564 29.753,48.191 18.834,48.191 "
     id="polygon25"
     style="fill:#91c83e"
     transform="translate(-18.833,-17.054)" /><rect
     x="10.92"
     y="20.216999"
     width="28.591999"
     height="10.92"
     id="rect27"
     style="fill:#ed2f24" /><rect
     x="39.512001"
     y="20.216999"
     width="10.919"
     height="10.92"
     id="rect29"
     style="fill:#f36fb0" /><rect
     x="0.0009996338"
     y="20.216999"
     width="10.919"
     height="10.92"
     id="rect31"
     style="fill:#f7d059" /><rect
     x="10.92"
     y="39.509998"
     width="28.591999"
     height="10.92"
     id="rect33"
     style="fill:#51b1e4" /><rect
     x="39.512001"
     y="39.509998"
     width="10.919"
     height="10.92"
     id="rect35"
     style="fill:#b4eeeb" /><rect
     x="0.0009996338"
     y="39.509998"
     width="10.919"
     height="10.92"
     id="rect37"
     style="fill:#b4eeeb" /><rect
     x="10.92"
     y="8.5449221e-07"
     width="28.591999"
     height="10.919"
     id="rect39"
     style="fill:#fac510" /><rect
     x="39.512001"
     y="8.5449221e-07"
     width="10.919"
     height="10.919"
     id="rect41"
     style="fill:#fcd8a8" /><rect
     x="0.0009996338"
     y="8.5449221e-07"
     width="10.919"
     height="10.919"
     id="rect43"
     style="fill:#fdf249" /></svg>